
<svg width="61px" height="65px" viewBox="0 0 61 65" version="1.1" xmlns="http://www.w3.org/2000/svg" xmlns:xlink="http://www.w3.org/1999/xlink">
    <!-- Generator: Sketch 45.2 (43514) - http://www.bohemiancoding.com/sketch -->
    <desc>Created with Sketch.</desc>
    <defs></defs>
    <g id="Page-1" stroke="none" stroke-width="1" fill="none" fill-rule="evenodd">
        <g id="cheese-logo-02" transform="translate(-12.000000, -9.000000)" fill-rule="nonzero" fill="#FFFFFF">
            <g id="Group" transform="translate(12.000000, 9.000000)">
                <path d="M30.8,57.6 C17.5,57.6 6.7,46.8 6.7,33.5 C6.7,20.2 17.5,9.4 30.8,9.4 C44.1,9.4 54.9,20.2 54.9,33.5 C54.9,46.8 44.1,57.6 30.8,57.6 Z M30.8,11.1 C18.5,11.1 8.4,21.1 8.4,33.5 C8.4,45.8 18.4,55.9 30.8,55.9 C43.1,55.9 53.2,45.9 53.2,33.5 C53.2,21.1 43.1,11.1 30.8,11.1 Z" id="Shape" fill-rule="nonzero" fill="#FFFFFF"></path>
                <path d="M27.4,40.8 L27.4,41.3 C27.4,41.3 27.4,41.3 27.4,41.3 C28.1,41.3 28.7,41.2 29.3,41.1 L29.3,40.8 C28.9,40.9 28.5,40.9 28.1,40.9 C27.9,40.8 27.7,40.8 27.4,40.8" id="Shape" fill-rule="nonzero" fill="#FFFFFF"></path>
                <path d="M43.3,45.9 C43.1,45.8 42.9,45.7 42.7,45.7 C42.5,45.7 42.4,45.8 42.3,45.9 C42.2,46 42.1,46.1 42.1,46.2 C42.1,46.3 42.1,46.4 42.2,46.5 C42.2,46.6 42.2,46.6 42.1,46.6 C41.3,46.6 40.7,46.2 40.1,45.4 C39.6,44.7 39.3,43.8 39,42.8 C38.8,41.4 38.6,40.1 38.5,38.7 C38.3,37.5 38,36.5 37.5,35.7 C37.1,35 36.7,34.3 36.3,33.7 C35.9,33.2 35.4,32.7 34.8,32.1 C35.5,31.9 36.2,31.6 36.7,31.4 C37.5,31.1 38.1,30.7 38.6,30.4 C39.3,29.9 39.8,29.4 40.2,28.8 C40.6,28.2 40.7,27.5 40.7,26.7 C40.7,26 40.5,25.4 40.1,24.9 C39.7,24.4 39.2,24.1 38.5,24.1 C37.8,24.1 37.3,24.4 36.9,24.9 C36.6,25.3 36.5,25.7 36.5,26 C36.5,26.1 36.5,26.2 36.6,26.2 C36.7,26.2 36.7,26.2 36.8,26.1 C36.9,26 37,25.9 37.1,25.9 C37.3,25.8 37.4,25.7 37.6,25.7 C38,25.7 38.3,25.8 38.5,26 C38.7,26.2 38.8,26.6 38.8,27 C38.8,27.7 38.6,28.3 38.1,28.8 C37.8,29.2 37.2,29.6 36.4,30.1 C34.9,30.8 33.4,31.5 31.9,32.2 C31.5,32.4 31,32.7 30.6,33 C30.3,33.2 29.9,33.5 29.5,33.8 L29.5,26.4 C29.5,26.2 29.6,26 29.9,25.8 C30.3,25.5 30,25 29.6,25.1 C29.2,25.1 28.8,25.1 28.4,25.1 C28.2,25.1 27.9,25.1 27.4,25.1 C26.9,25.1 26.6,25.1 26.5,25.1 C26.4,25.1 26.3,25.1 26.3,25.2 C26.3,25.3 26.3,25.3 26.3,25.4 C26.5,25.6 26.7,25.7 26.9,25.9 C27.2,26.1 27.3,26.3 27.3,26.5 L27.3,40 C27.6,40 27.8,40 28.1,40 C28.5,40 28.9,40 29.3,39.9 L29.3,35.4 C29.8,34.9 30.4,34.4 31.1,34 C31.9,33.5 32.8,33 33.6,32.8 C34,33.3 34.4,33.7 34.6,34.1 C35,34.7 35.2,35.2 35.4,35.8 C35.6,36.4 35.7,37.1 35.8,38 C36,39.3 36.1,40.1 36.1,40.2 C36.3,41 36.5,41.8 36.8,42.6 C37.3,44 38,45.1 38.8,45.9 C39.8,46.9 41,47.5 42.3,47.5 C42.7,47.5 42.9,47.4 43.1,47.2 C43.3,47 43.4,46.8 43.4,46.5 C43.5,46.2 43.4,46 43.3,45.9" id="Shape" fill-rule="nonzero" fill="#FFFFFF"></path>
                <path d="M30.5,44.2 C30.5,44.2 30.3,44 29.9,43.7 C29.6,43.5 29.5,43.3 29.5,43.1 L29.5,42 C28.9,42.1 28.2,42.2 27.6,42.2 C27.6,42.2 27.6,42.2 27.6,42.2 L27.6,43.1 C27.6,43.3 27.5,43.5 27.2,43.7 C26.8,44 26.6,44.2 26.6,44.2 C26.6,44.2 26.6,44.3 26.6,44.3 C26.6,44.4 26.7,44.5 26.8,44.5 C26.9,44.5 27.1,44.5 27.3,44.5 C27.9,44.5 28.4,44.4 28.7,44.4 C28.9,44.4 29.2,44.4 29.7,44.4 C30.2,44.4 30.5,44.4 30.5,44.4 C30.7,44.4 30.8,44.3 30.8,44.2 C30.5,44.3 30.5,44.3 30.5,44.2 C30.5,44.2 30.5,44.2 30.5,44.2" id="Shape"></path>
                <path d="M35.4,20.1 C35,19.7 34.4,19.6 33.7,19.6 C32.8,19.6 32,20 31.4,20.7 C30.9,21.3 30.6,21.9 30.5,22.7 C29.5,21.8 28.2,21.3 26.6,21.3 C24.2,21.3 22.2,22.3 20.5,24.2 C19,26.1 18.2,28.3 18.2,30.9 C18.2,33.8 19,36.3 20.7,38.4 C22.5,40.6 24.7,41.7 27.4,41.7 C29.2,41.7 30.8,41.2 32.1,40.3 C33.4,39.3 34.1,38.2 34.3,36.8 C34.3,36.7 34.3,36.7 34.3,36.6 C34.3,36.1 34.2,35.7 34,35.4 C33.7,35 33.4,34.8 32.9,34.8 C32.5,34.8 32.2,35 32,35.3 C31.8,35.6 31.7,35.8 31.7,36.1 C31.7,36.2 31.7,36.3 31.8,36.3 C31.9,36.3 31.9,36.3 31.9,36.2 C32,36.1 32,36 32.1,36 C32.2,35.9 32.4,35.9 32.6,35.9 C32.8,35.9 33,36 33.1,36.2 C33.2,36.4 33.3,36.6 33.3,36.8 C33.3,37.7 32.8,38.6 31.8,39.3 C30.8,40 29.5,40.4 28.1,40.4 C25.7,40.4 23.8,39.3 22.3,37.1 C20.9,35.1 20.3,32.8 20.3,30.2 C20.3,28.1 20.8,26.2 21.9,24.7 C23.1,23 24.6,22.2 26.5,22.2 C27.5,22.2 28.4,22.4 29.2,22.9 C30,23.4 30.5,24 30.7,24.7 C30.8,24.9 30.8,25.1 30.8,25.3 C30.8,25.4 30.8,25.6 30.8,25.7 C30.8,25.9 30.7,26 30.7,26.1 C30.7,26.2 30.7,26.3 30.8,26.3 C30.8,26.3 30.9,26.3 30.9,26.3 C30.9,26.3 31,26.2 31.3,26 C31.3,26 31.5,25.9 31.7,25.7 L32.6,25.2 C32.7,25.2 32.7,25.1 32.7,25.1 C32.7,25.1 32.7,25 32.6,25 C32.3,24.8 32.1,24.7 32.1,24.7 C32,24.6 31.9,24.5 31.8,24.3 C31.5,23.9 31.4,23.5 31.4,23.1 C31.4,22.5 31.6,22 32.1,21.6 C32.6,21.2 33.1,21 33.7,21 C34,21 34.3,21.1 34.6,21.2 C34.9,21.3 35,21.5 35.2,21.8 C35.3,22 35.3,22.1 35.3,22.3 C35.3,22.4 35.3,22.5 35.3,22.6 C35.3,22.7 35.2,22.8 35.2,22.9 C35.2,23 35.2,23.1 35.3,23.1 C35.3,23.1 35.4,23.1 35.4,23.1 C35.7,22.9 35.9,22.8 36,22.6 C36.2,22.3 36.4,22.1 36.4,21.7 C36,20.9 35.8,20.4 35.4,20.1" id="Shape"></path>
                <path d="M57.8,24.9 L57.2,25 L57.1,24.7 L56.4,24.9 L56.9,26.7 L57.6,26.5 L57.5,26.1 L59.5,25.6 L59.6,26 L60.3,25.8 L59.7,23.7 C59.6,23.5 59.6,23.3 59.4,23.1 C59.3,22.9 59.2,22.8 59.1,22.8 C59,22.7 58.8,22.7 58.7,22.7 C58.6,22.7 58.4,22.7 58.3,22.7 C58.2,22.7 58.2,22.8 58.1,22.8 C58,22.8 58,22.9 57.9,23 C57.8,23.1 57.8,23.1 57.7,23.2 C57.7,23.3 57.6,23.4 57.6,23.5 L56.7,23.2 L56.5,22.7 L56,22.9 C56,23 56,23.2 56,23.3 C56,23.4 56,23.6 56.1,23.6 C56.1,23.7 56.2,23.8 56.2,23.8 C56.2,23.8 56.3,23.9 56.3,24 C56.4,24 56.4,24.1 56.5,24.1 C56.6,24.1 56.6,24.1 56.7,24.2 C56.8,24.2 56.8,24.2 56.9,24.3 C57,24.3 57.1,24.3 57.2,24.4 C57.3,24.4 57.4,24.4 57.5,24.5 C57.6,24.5 57.7,24.5 57.7,24.6 L57.8,24.9 Z M58.9,23.9 C59,24 59,24.1 59.1,24.2 L59.2,24.5 L58.5,24.7 L58.4,24.4 C58.4,24.3 58.4,24.3 58.4,24.2 C58.4,24.1 58.4,24.1 58.4,24 C58.4,23.9 58.4,23.9 58.5,23.9 C58.5,23.9 58.6,23.8 58.7,23.8 C58.7,23.8 58.8,23.8 58.9,23.9 L58.9,23.9 Z M55.7,22.4 L56.3,22.1 L56.1,21.7 L57.9,20.8 L58.1,21.2 L58.7,20.9 L58,19.1 L57.4,19.4 L57.6,19.7 L57.5,19.7 L56,19.1 L57,18.6 L57.2,18.9 L57.8,18.6 L57,16.9 L56.4,17.2 L56.6,17.6 L54.8,18.5 L54.6,18.1 L54,18.4 L54.8,20.2 L55.4,19.9 L55.2,19.6 L55.3,19.6 L56.8,20.3 L55.8,20.8 L55.6,20.5 L55,20.8 L55.7,22.4 Z M52.2,17.6 L52.7,18.3 L54,17.3 L53.8,17 L55.4,15.8 L55.6,16.1 L56.2,15.7 L55.1,14.2 L54.5,14.6 L54.7,14.9 L53.1,16 L52.4,15.1 L54,14 L54.2,14.3 L54.8,13.9 L53.7,12.4 L53.1,12.8 L53.3,13.1 L51.7,14.3 L51.5,14 L50.9,14.4 L52.9,17.2 L52.2,17.6 Z M50.8,11.6 L51.9,11.4 L52.2,11.7 L52.7,11.3 C52.7,11.2 52.6,11.1 52.5,11 C52.4,10.9 52.4,10.8 52.3,10.7 C52.2,10.6 52.1,10.5 52,10.5 C51.9,10.5 51.8,10.5 51.6,10.5 L50.1,10.8 L49.8,11 L49.6,12.6 C49.6,12.8 49.6,12.9 49.6,13 C49.7,13.1 49.7,13.2 49.9,13.3 C50,13.3 50,13.4 50.2,13.5 C50.3,13.6 50.4,13.6 50.5,13.7 L50.9,13.3 L50.7,13 L50.8,11.6 Z M50.5,10.1 L50.7,10.3 L51.2,9.8 L49.8,8.5 L49.3,9 L49.6,9.2 L48.2,10.7 L48,10.6 L47.5,11.1 L48.9,12.4 L49.4,11.9 L49.2,11.7 L50.5,10.1 Z M46.9,10.6 L47.6,9.6 L46.9,9.1 L46.6,9.5 L45.7,8.9 L46.1,8.3 L46.8,8.8 L47.2,8.2 L46.4,7.7 L46.8,7.2 L47.7,7.8 L47.4,8.2 L48.1,8.7 L48.8,7.7 L45.9,5.7 L45.5,6.3 L45.8,6.5 L44.6,8.2 L44.4,8 L44,8.6 L46.9,10.6 Z M43.4,8.3 L43.7,7.7 L43.3,7.5 L44.2,5.7 L44.6,5.9 L44.9,5.3 L41.5,3.7 L41.2,4.3 L41.6,4.5 L41.4,4.8 C41.3,5.1 41.2,5.3 41.1,5.4 C41,5.5 40.9,5.7 40.8,5.7 C40.7,5.8 40.6,5.8 40.4,5.8 C40.3,5.8 40.1,5.8 39.9,5.8 L39.8,6.8 C40.2,6.9 40.5,6.9 40.8,6.9 C41.1,6.9 41.3,6.8 41.5,6.6 C41.7,6.4 41.9,6.2 42.1,6 C42.3,5.7 42.4,5.5 42.6,5.1 L42.7,4.9 L43.2,5.1 L42.3,7 L42,6.9 L41.7,7.5 L43.4,8.3 Z M39,6.3 L39.2,5.6 L38.8,5.5 L39.3,3.5 L39.7,3.6 L39.9,2.9 L36.3,2 L36,2.8 L36.5,2.9 L36.4,3.2 C36.3,3.5 36.3,3.7 36.2,3.9 C36.1,4.1 36.1,4.2 36,4.3 C35.9,4.4 35.8,4.5 35.6,4.5 C35.5,4.5 35.3,4.6 35.1,4.6 L35.2,5.6 C35.6,5.6 35.9,5.6 36.1,5.5 C36.4,5.4 36.6,5.3 36.8,5.1 C37,4.9 37.1,4.7 37.2,4.4 C37.3,4.1 37.4,3.8 37.5,3.5 L37.5,3.3 L38.1,3.4 L37.6,5.4 L37.3,5.3 L37.1,6 L39,6.3 Z M33.2,3.9 C33.2,4 33.1,4.1 33.1,4.2 C33,4.3 33,4.4 32.9,4.4 C32.8,4.4 32.7,4.5 32.6,4.5 C32.3,4.5 32.2,4.4 32.1,4.2 C32,4 32,3.8 32,3.4 C32,3.3 32,3.1 32.1,3 C32.1,2.9 32.2,2.8 32.2,2.7 C32.3,2.6 32.3,2.5 32.4,2.5 C32.5,2.4 32.6,2.4 32.7,2.4 C32.8,2.4 32.9,2.4 33,2.5 C33.1,2.6 33.1,2.6 33.2,2.7 C33.2,2.8 33.3,2.9 33.3,3 C33.3,3.1 33.3,3.3 33.3,3.4 C33.3,3.6 33.2,3.7 33.2,3.9 L33.2,3.9 Z M34.5,2.8 C34.4,2.6 34.3,2.4 34.2,2.2 C34.1,2 33.9,1.9 33.6,1.8 C33.4,1.7 33.1,1.6 32.7,1.6 C32.4,1.6 32.1,1.6 31.8,1.7 C31.6,1.8 31.3,1.9 31.2,2 C31,2.2 30.9,2.3 30.8,2.5 C30.7,2.7 30.7,2.9 30.6,3.2 C30.6,3.5 30.6,3.7 30.7,3.9 C30.8,4.1 30.9,4.3 31,4.5 C31.2,4.7 31.3,4.8 31.6,4.9 C31.9,5 32.1,5.1 32.5,5.1 C32.8,5.1 33.1,5.1 33.3,5 C33.5,4.9 33.8,4.8 33.9,4.7 C34.1,4.5 34.2,4.4 34.3,4.2 C34.4,4 34.4,3.8 34.5,3.5 C34.5,3.3 34.5,3 34.5,2.8 L34.5,2.8 Z M28,2.7 L28.8,1.3 L29.4,1.2 L29.4,0.5 C29.1,0.4 28.8,0.3 28.5,0.4 C28.3,0.4 28.2,0.5 28.1,0.5 C28,0.6 27.9,0.7 27.8,0.9 L26.9,2.7 L26.9,3.1 L28.3,4.8 C28.4,4.9 28.6,5 28.7,5.1 C28.8,5.1 29,5.1 29.2,5.1 C29.2,5.1 29.3,5.1 29.4,5.1 C29.5,5.1 29.5,5.1 29.6,5 C29.7,5 29.7,5 29.8,4.9 C29.9,4.9 29.9,4.8 30,4.8 L29.9,4.1 L29.3,4.1 L28,2.7 Z M26.5,1.5 L27,1.4 L26.9,0.6 L24.7,0.9 L24.8,1.7 L25.3,1.6 L25.6,4.6 L25.1,4.7 L25.2,5.5 L27.4,5.2 L27.3,4.4 L26.8,4.5 L26.5,1.5 Z M20.7,5.5 L20.9,6.1 L20.6,6.2 L20.9,6.9 L22.7,6.2 L22.4,5.5 L22,5.6 L21.3,3.7 L21.7,3.6 L21.4,2.9 L19.4,3.7 C19.2,3.8 19,3.9 18.8,4 C18.7,4.1 18.6,4.2 18.5,4.4 C18.4,4.5 18.4,4.7 18.4,4.8 C18.4,4.9 18.4,5.1 18.5,5.2 C18.5,5.3 18.6,5.3 18.6,5.4 C18.6,5.5 18.7,5.5 18.8,5.6 C18.9,5.7 19,5.7 19,5.7 C19.1,5.7 19.2,5.8 19.3,5.8 L19.1,6.7 L18.8,7 L19,7.5 C19.1,7.5 19.3,7.5 19.4,7.4 C19.5,7.4 19.7,7.3 19.7,7.3 C19.8,7.3 19.9,7.2 19.9,7.2 C20,7.2 20,7.1 20,7.1 C20,7 20.1,7 20.1,6.9 C20.1,6.8 20.1,6.8 20.1,6.7 C20.1,6.6 20.1,6.6 20.1,6.5 C20.1,6.4 20.1,6.3 20.1,6.2 C20.1,6.1 20.1,6 20.1,5.9 C20.1,5.8 20.1,5.7 20.1,5.7 L20.7,5.5 Z M19.6,4.5 C19.7,4.4 19.8,4.3 19.9,4.3 L20.2,4.2 L20.5,4.9 L20.2,5 C20.1,5 20.1,5 20,5.1 C19.9,5.1 19.9,5.1 19.8,5.1 C19.7,5.1 19.7,5.1 19.6,5 C19.6,5 19.5,4.9 19.5,4.8 C19.5,4.7 19.5,4.6 19.6,4.5 L19.6,4.5 Z M15.3,6.6 L15.7,7 L16.1,7.4 L15.5,7.7 L15.4,7.2 L15.3,6.6 L15.3,6.6 Z M16.8,8 L16.6,8.1 L17,8.7 L18.5,7.8 L18.1,7.2 L17.8,7.4 L15.5,5.6 L14.3,6.3 L14.7,9.2 L14.4,9.4 L14.8,10 L16.3,9.1 L16,8.5 L15.8,8.6 L15.7,8.3 L16.6,7.8 L16.8,8 Z M14.4,10.3 L13.9,9.8 L13.6,10.1 L12.3,8.6 L12.6,8.3 L12.1,7.8 L10.7,9 L11.2,9.5 L11.4,9.3 L11.8,9.8 L11,10.5 L10.6,10 L10.8,9.8 L10.3,9.3 L8.9,10.5 L9.4,11 L9.7,10.7 L11,12.2 L10.7,12.5 L11.2,13 L12.6,11.8 L12.1,11.3 L11.9,11.5 L11.4,11 L12.2,10.3 L12.7,10.8 L12.5,11 L13,11.5 L14.4,10.3 Z M7.6,13.2 C7.7,13.1 7.8,13 7.9,13 C8,13 8.1,13 8.2,13.1 C8.3,13.2 8.4,13.3 8.4,13.4 C8.4,13.5 8.4,13.6 8.3,13.7 L8.1,13.9 L7.5,13.4 L7.6,13.2 Z M8.5,11.9 C8.4,11.9 8.2,11.9 8.1,11.9 C7.9,11.9 7.8,12 7.6,12.1 C7.4,12.2 7.3,12.4 7.1,12.6 L5.8,14.2 L6.4,14.6 L6.6,14.3 L8.2,15.6 L8,15.9 L8.6,16.3 L9.9,14.7 L9.3,14.3 L9,14.6 L8.6,14.3 L8.9,13.9 C9,13.7 9.1,13.5 9.2,13.4 C9.3,13.2 9.3,13.1 9.3,12.9 C9.3,12.7 9.2,12.6 9.2,12.5 C9.1,12.4 9,12.3 8.9,12.2 C8.8,12 8.7,12 8.5,11.9 L8.5,11.9 Z M5,19.4 C5.1,19.3 5.1,19.2 5.2,19.2 C5.3,19.2 5.4,19.2 5.5,19.2 C5.6,19.3 5.7,19.3 5.7,19.4 C5.7,19.5 5.7,19.6 5.6,19.7 L5.4,20.1 L4.7,19.7 L5,19.4 Z M3.3,18.5 L2.4,20.2 L3,20.5 L3.2,20.1 L5,21 L4.8,21.4 L5.4,21.7 L6.5,19.7 C6.6,19.5 6.7,19.3 6.7,19.2 C6.7,19 6.7,18.9 6.7,18.7 C6.7,18.6 6.6,18.4 6.5,18.3 C6.4,18.2 6.3,18.1 6.1,18 C6,18.1 5.8,18 5.6,18 C5.4,18 5.3,18.1 5.1,18.1 C5,18.2 4.8,18.3 4.7,18.4 C4.6,18.5 4.5,18.7 4.4,18.9 L4.1,19.4 L3.6,19.1 L3.8,18.8 L3.3,18.5 Z M8.1,16.8 L7.5,16.5 L7.3,16.8 L5.5,15.9 L5.7,15.6 L5,15.2 L4.1,16.9 L4.7,17.2 L4.9,16.9 L6.7,17.8 L6.5,18.1 L7.1,18.4 L8.1,16.8 Z M1.8,24.1 C1.6,24 1.5,23.9 1.4,23.8 C1.3,23.7 1.2,23.6 1.2,23.4 C1.2,23.3 1.2,23.1 1.2,22.9 C1.2,22.8 1.2,22.8 1.3,22.7 C1.3,22.6 1.3,22.6 1.4,22.5 L2,22.7 L2.3,21.8 L0.9,21.4 C0.8,21.6 0.7,21.7 0.6,21.9 C0.5,22.1 0.4,22.3 0.4,22.5 C0.3,23 0.2,23.4 0.3,23.7 C0.3,24 0.5,24.3 0.6,24.6 C0.8,24.8 1,25 1.2,25.2 C1.5,25.3 1.7,25.5 2,25.5 C2.3,25.6 2.6,25.6 2.9,25.7 C3.2,25.7 3.5,25.7 3.7,25.6 C3.9,25.5 4.2,25.3 4.4,25.1 C4.6,24.8 4.8,24.5 4.9,24 C4.9,23.9 5,23.8 5,23.6 C5,23.5 5.1,23.3 5.1,23.2 C5.1,23.1 5.1,22.9 5.1,22.8 C5.1,22.7 5.1,22.5 5.1,22.4 L4.2,22.3 C4.2,22.4 4.2,22.5 4.2,22.6 C4.2,22.7 4.2,22.8 4.2,22.9 C4.2,23 4.2,23.1 4.1,23.2 C4.1,23.3 4.1,23.4 4.1,23.4 C4,23.6 4,23.8 3.9,23.9 C3.8,24 3.7,24.1 3.6,24.2 C3.5,24.3 3.3,24.3 3.1,24.3 C2.9,24.3 2.7,24.3 2.4,24.2 C2.1,24.2 1.9,24.2 1.8,24.1 L1.8,24.1 Z" id="Shape"></path>
                <path d="M1.5,34.4 C2,34.4 2.4,34 2.4,33.5 C2.4,33 2,32.6 1.5,32.6 C1,32.6 0.6,33 0.6,33.5 C0.6,34 1,34.4 1.5,34.4" id="Shape"></path>
                <path d="M59.6,34.4 C60.1,34.4 60.5,34 60.5,33.5 C60.5,33 60.1,32.6 59.6,32.6 C59.1,32.6 58.7,33 58.7,33.5 C58.6,34 59,34.4 59.6,34.4" id="Shape"></path>
                <path d="M58.4,40.2 L58.4,40.2 L59.8,39.9 L59.5,40.9 L58.4,40.2 Z M57.8,40.3 L60.1,42.1 L60.2,41.6 L59.8,41.3 L60.1,39.9 L60.6,39.8 L60.7,39.3 L58,39.8 L57.8,40.3 Z M56.6,44.3 L59.2,45.2 L59.4,44.8 L58.2,44.4 L58.3,44 C58.3,43.9 58.3,43.9 58.3,43.8 L59.7,43.5 L59.9,43 L58.2,43.4 C58.2,43.3 58.1,43.3 58.1,43.2 L57.7,42.7 C57.7,42.7 57.6,42.6 57.6,42.5 C57.6,42.4 57.6,42.4 57.6,42.3 L57.6,42.2 L57.2,42 C57.1,42.1 57.1,42.2 57.1,42.2 C57,42.4 57,42.5 57.1,42.6 C57.1,42.7 57.2,42.8 57.3,42.9 L57.7,43.4 C57.7,43.4 57.8,43.5 57.8,43.5 C57.8,43.6 57.8,43.6 57.8,43.7 L57.7,44.1 L56.7,43.8 L56.6,44.3 Z M56.7,45.9 C56.8,45.9 56.8,46 56.9,46.1 C56.9,46.2 56.9,46.3 56.9,46.3 L56.5,47.2 L55.9,46.9 L56.3,46.1 C56.3,46 56.4,45.9 56.5,45.9 C56.5,45.8 56.6,45.8 56.7,45.9 L56.7,45.9 Z M57.8,46.2 C57.9,46.2 58,46.3 58,46.4 C58,46.5 58,46.6 58,46.7 L57.6,47.6 L56.9,47.3 L57.3,46.4 C57.3,46.3 57.5,46.2 57.6,46.2 C57.6,46.1 57.7,46.2 57.8,46.2 L57.8,46.2 Z M58.4,46.9 C58.5,46.7 58.5,46.4 58.5,46.2 C58.4,46 58.3,45.8 58.1,45.7 C57.9,45.6 57.8,45.6 57.6,45.6 C57.5,45.6 57.4,45.7 57.3,45.8 L57.3,45.8 C57.3,45.7 57.3,45.6 57.2,45.6 C57.1,45.5 57.1,45.5 57,45.4 C56.8,45.3 56.6,45.3 56.5,45.4 C56.3,45.5 56.1,45.6 56,45.9 L55.4,47.2 L57.9,48.3 L58.4,46.9 Z M54.6,49.1 L54.6,49.1 L56,49.3 L55.4,50.2 L54.6,49.1 Z M54.1,49.1 L55.8,51.6 L56.1,51.2 L55.8,50.7 L56.6,49.5 L57.1,49.6 L57.4,49.2 L54.5,48.8 L54.1,49.1 Z M51.9,52 L53.3,53.5 C53.4,53.6 53.4,53.6 53.4,53.7 C53.4,53.8 53.4,53.8 53.3,53.9 C53.3,54 53.2,54 53.1,54.1 L53.4,54.4 C53.5,54.3 53.6,54.2 53.7,54.1 C53.8,53.9 53.9,53.8 53.9,53.6 C53.9,53.5 53.8,53.3 53.7,53.1 L52.5,52 L53.1,51.2 L54.9,52.6 L55.2,52.2 L53.1,50.5 L51.9,52 Z M49.8,55.7 C49.9,55.8 49.9,55.8 50,55.8 C49.9,56 49.7,56.3 49.4,56.7 C49,57.2 48.7,57.7 48.9,58.4 L49.3,58.3 C49.2,57.9 49.4,57.5 49.7,57.2 C49.8,57.3 49.9,57.3 50,57.4 C50.3,57.8 50.3,58.5 49.7,59 C49.1,59.5 48.3,59.3 47.9,58.8 C47.5,58.3 47.5,57.7 47.9,57.1 C48.1,57.2 48.4,57.2 48.7,57.2 L48.6,56.8 C48.2,56.8 48,56.7 47.8,56.5 C47.5,56.2 47.6,55.7 47.9,55.5 C48.2,55.3 48.4,55.4 48.6,55.5 C48.7,55.7 48.7,56 48.4,56.1 L48.6,56.5 C49.2,56.1 49.2,55.6 48.9,55.2 C48.6,54.9 48.1,54.7 47.5,55.1 C46.9,55.5 46.9,56.2 47.3,56.8 C47.3,56.8 47.4,56.9 47.4,56.9 C46.9,57.5 46.7,58.5 47.3,59.2 C47.9,59.9 49,60.1 49.8,59.4 C50.6,58.7 50.7,57.7 50.1,57 C50,56.9 49.9,56.8 49.8,56.7 C50.2,56.2 50.6,55.6 50.3,55.2 C50.1,54.9 49.8,55 49.7,55.1 C49.7,55.3 49.6,55.6 49.8,55.7 L49.8,55.7 Z M42.2,60.4 C42.1,60.3 42.1,60.2 42.2,60 C42.2,59.9 42.3,59.7 42.5,59.6 L43.3,59.2 L43.8,60.2 L43,60.6 C42.8,60.7 42.6,60.7 42.5,60.6 C42.3,60.6 42.2,60.5 42.2,60.4 L42.2,60.4 Z M41.7,60.6 C41.8,60.8 41.9,60.9 42.1,61 C42.2,61.1 42.4,61.1 42.6,61.1 L42.4,62.1 L42.9,61.9 C42.9,61.6 43,61.3 43,61 L43.8,60.6 L44.1,61.3 L44.5,61.1 L43.4,58.6 L42.2,59.2 C41.9,59.3 41.7,59.6 41.6,59.8 C41.6,60.1 41.6,60.4 41.7,60.6 L41.7,60.6 Z M40.2,60.1 L40.5,61.1 L39.2,61.6 L38.9,60.6 L38.4,60.8 L39.3,63.4 L39.8,63.2 L39.3,62 L40.6,61.5 L41,62.7 L41.4,62.5 L40.6,60 L40.2,60.1 Z M37.1,62.6 L36.3,62.8 L36.1,61.7 L36.9,61.5 C37.1,61.5 37.2,61.5 37.3,61.6 C37.4,61.7 37.5,61.8 37.5,61.9 C37.5,62 37.5,62.2 37.4,62.3 C37.4,62.5 37.3,62.6 37.1,62.6 L37.1,62.6 Z M38,61.9 C37.9,61.7 37.8,61.5 37.6,61.3 C37.4,61.1 37.1,61 36.7,61.1 L35.4,61.4 L36,64 L36.5,63.9 L36.3,63.2 L37.1,63 C37.4,62.9 37.6,62.8 37.7,62.6 C38,62.4 38.1,62.1 38,61.9 L38,61.9 Z M33.5,62.2 L33.5,62.2 L34.2,63.4 L33.1,63.5 L33.5,62.2 Z M33.2,61.7 L32.3,64.5 L32.8,64.4 L33,63.9 L34.4,63.7 L34.7,64.2 L35.2,64.1 L33.7,61.5 L33.2,61.7 Z M30.9,62.5 C30.9,62.6 30.9,62.7 30.8,62.7 C30.8,62.8 30.7,62.8 30.6,62.8 L29.6,62.8 L29.6,62.2 L30.5,62.2 C30.6,62.2 30.7,62.2 30.8,62.3 C30.9,62.4 30.9,62.4 30.9,62.5 L30.9,62.5 Z M31.1,63.7 C31.1,63.8 31.1,63.9 31,64 C30.9,64.1 30.8,64.1 30.7,64.1 L29.7,64.1 L29.7,63.3 L30.7,63.3 C30.8,63.3 30.9,63.4 31,63.4 C31,63.5 31.1,63.6 31.1,63.7 L31.1,63.7 Z M30.7,64.5 C31,64.5 31.2,64.4 31.3,64.2 C31.5,64.1 31.5,63.8 31.5,63.6 C31.5,63.4 31.5,63.3 31.4,63.2 C31.3,63.1 31.2,63 31.1,63 L31.1,63 C31.2,62.9 31.2,62.9 31.3,62.8 C31.3,62.7 31.4,62.6 31.4,62.5 C31.4,62.3 31.3,62.1 31.2,62 C31,61.8 30.8,61.8 30.6,61.8 L29.2,61.8 L29.2,64.5 L30.7,64.5 Z M26,62.8 C26,62.5 26.2,62.3 26.3,62.2 C26.5,62 26.8,62 27,62 C27.3,62 27.5,62.2 27.6,62.4 C27.7,62.6 27.8,62.8 27.8,63.1 C27.8,63.4 27.6,63.6 27.5,63.7 C27.3,63.9 27,63.9 26.8,63.9 C26.5,63.9 26.3,63.7 26.1,63.5 C26.1,63.4 26,63.1 26,62.8 L26,62.8 Z M27.1,61.6 C26.7,61.6 26.3,61.7 26,61.9 C25.7,62.1 25.6,62.5 25.5,62.8 C25.5,63.2 25.6,63.5 25.8,63.8 C26,64.1 26.4,64.3 26.8,64.4 C27.2,64.4 27.6,64.3 27.9,64.1 C28.2,63.9 28.3,63.5 28.4,63.2 C28.4,62.8 28.3,62.4 28.1,62.2 C27.9,61.8 27.5,61.6 27.1,61.6 L27.1,61.6 Z M23.8,62.6 L23,62.4 L23.2,61.3 L24,61.5 C24.2,61.5 24.3,61.6 24.4,61.8 C24.5,61.9 24.5,62 24.5,62.2 C24.5,62.3 24.4,62.4 24.3,62.5 C24.1,62.6 24,62.6 23.8,62.6 L23.8,62.6 Z M24.9,62.3 C25,62.1 24.9,61.8 24.8,61.6 C24.7,61.3 24.4,61.1 24.1,61.1 L22.8,60.8 L22.2,63.4 L22.7,63.5 L22.9,62.8 L23.7,63 C24,63.1 24.2,63 24.5,62.9 C24.7,62.8 24.9,62.5 24.9,62.3 L24.9,62.3 Z M22.1,60.6 L21.7,60.4 L20.8,63 L21.2,63.2 L22.1,60.6 Z M20.4,61.8 C20.3,62 20.2,62.1 20.1,62.1 C20,62.2 19.8,62.2 19.7,62.1 L19,61.8 L19.4,60.7 L20.1,61 C20.3,61.1 20.4,61.2 20.4,61.3 C20.5,61.5 20.5,61.6 20.4,61.8 L20.4,61.8 Z M20.9,61.9 C21,61.6 21,61.4 20.9,61.2 C20.8,61 20.6,60.8 20.3,60.7 L19.5,60.4 L19.7,59.7 L19.2,59.5 L18.3,62.1 L19.5,62.5 C19.8,62.6 20,62.6 20.3,62.5 C20.6,62.4 20.8,62.2 20.9,61.9 L20.9,61.9 Z M16.3,59.5 C16.4,59.3 16.6,59.1 16.9,59 C17.1,58.9 17.4,58.9 17.6,59.1 C17.9,59.2 18.1,59.5 18.2,59.8 L18.6,59.6 C18.4,59.2 18.2,58.9 17.8,58.7 C17.4,58.5 17,58.5 16.7,58.6 C16.4,58.7 16.1,59 15.9,59.3 C15.7,59.7 15.7,60 15.8,60.4 C15.9,60.7 16.2,61 16.5,61.2 C16.9,61.4 17.3,61.4 17.7,61.3 L17.6,60.9 C17.3,61 17,61 16.7,60.8 C16.5,60.7 16.3,60.5 16.2,60.2 C16.2,60.1 16.2,59.8 16.3,59.5 L16.3,59.5 Z M12.1,56.2 C12.2,56.1 12.3,56 12.4,56 C12.5,56 12.7,56 12.9,56.1 L13.6,56.6 L12.9,57.5 L12.2,57 C12,56.9 12,56.7 12,56.5 C12,56.4 12,56.3 12.1,56.2 L12.1,56.2 Z M11.7,55.9 C11.6,56.1 11.5,56.3 11.5,56.5 C11.5,56.7 11.5,56.8 11.6,57 L10.6,57.3 L11,57.6 C11.3,57.5 11.6,57.4 11.8,57.3 L12.5,57.8 L12.1,58.4 L12.5,58.7 L14.1,56.6 L13.1,55.8 C12.9,55.6 12.6,55.5 12.3,55.6 C12.1,55.6 11.9,55.7 11.7,55.9 L11.7,55.9 Z M10.5,54.1 L10.5,54.1 L10,55.4 L9.2,54.6 L10.5,54.1 Z M10.7,53.6 L8,54.7 L8.4,55.1 L8.9,54.9 L9.9,55.9 L9.7,56.4 L10.1,56.8 L11.1,54 L10.7,53.6 Z M9.1,51.9 L8.3,52.6 L7.4,51.5 L8.2,50.8 L7.9,50.4 L5.8,52.1 L6.1,52.5 L7.1,51.7 L8,52.8 L7,53.6 L7.3,54 L9.4,52.3 L9.1,51.9 Z M5.9,48.1 L6.5,48.9 L4.6,50.2 L4.9,50.6 L6.8,49.3 L7.4,50.1 L7.8,49.9 L6.4,47.8 L5.9,48.1 Z M3.9,46.2 C4.1,46.1 4.4,46.1 4.6,46.1 C4.8,46.2 5,46.3 5.1,46.6 C5.2,46.9 5.3,47.2 5.2,47.5 L5.6,47.6 C5.7,47.2 5.7,46.8 5.5,46.4 C5.3,46 5,45.8 4.7,45.7 C4.4,45.6 4,45.6 3.6,45.8 C3.2,46 3,46.3 2.9,46.6 C2.8,46.9 2.8,47.3 3,47.7 C3.2,48.1 3.5,48.3 3.9,48.5 L4.1,48.1 C3.8,48 3.6,47.8 3.4,47.5 C3.3,47.3 3.3,47 3.4,46.8 C3.4,46.5 3.6,46.3 3.9,46.2 L3.9,46.2 Z M3.7,43.5 L3.7,43.5 L2.7,44.5 L2.3,43.5 L3.7,43.5 Z M4.1,43.2 L1.1,43 L1.3,43.5 L1.8,43.5 L2.3,44.8 L2,45.3 L2.2,45.8 L4.3,43.7 L4.1,43.2 Z M0.9,42.1 L3.5,41.5 L3.4,41 L2,41.4 C1.8,41.2 1.7,41 1.7,40.7 C1.6,40.5 1.7,40.3 1.8,40.1 C1.9,39.9 2.1,39.8 2.4,39.8 L3.2,39.6 L3,39.1 L2.2,39.3 C1.8,39.4 1.5,39.6 1.4,39.9 C1.3,40.1 1.3,40.5 1.3,40.8 C1.4,41 1.5,41.3 1.7,41.5 L0.9,41.7 L0.9,42.1 Z" id="Shape"></path>
            </g>
        </g>
    </g>
</svg>