<?xml version="1.0" encoding="UTF-8"?>
<svg width="26px" height="29px" viewBox="0 0 26 29" version="1.1" xmlns="http://www.w3.org/2000/svg" xmlns:xlink="http://www.w3.org/1999/xlink">
    <!-- Generator: Sketch 45.2 (43514) - http://www.bohemiancoding.com/sketch -->
    <title>cheese-logock</title>
    <desc>Created with Sketch.</desc>
    <defs></defs>
    <g id="Page-1" stroke="none" stroke-width="1" fill="none" fill-rule="evenodd">
        <g id="cheese-logo" fill-rule="nonzero" fill="#FFFFFF">
            <path d="M9.4,21.8 L9.4,22.3 C9.4,22.3 9.4,22.3 9.4,22.3 C10.1,22.3 10.7,22.2 11.3,22.1 L11.3,21.8 C10.9,21.9 10.5,21.9 10.1,21.9 C9.9,21.8 9.7,21.8 9.4,21.8" id="Shape"></path>
            <path d="M25.3,26.9 C25.1,26.8 24.9,26.7 24.7,26.7 C24.5,26.7 24.4,26.8 24.3,26.9 C24.2,27 24.1,27.1 24.1,27.2 C24.1,27.3 24.1,27.4 24.2,27.5 C24.2,27.6 24.2,27.6 24.1,27.6 C23.3,27.6 22.7,27.2 22.1,26.4 C21.6,25.7 21.3,24.8 21,23.8 C20.8,22.4 20.6,21.1 20.5,19.7 C20.3,18.5 20,17.5 19.5,16.7 C19.1,16 18.7,15.3 18.3,14.7 C17.9,14.2 17.4,13.7 16.8,13.1 C17.5,12.9 18.2,12.6 18.7,12.4 C19.5,12.1 20.1,11.7 20.6,11.4 C21.3,10.9 21.8,10.4 22.2,9.8 C22.6,9.2 22.7,8.5 22.7,7.7 C22.7,7 22.5,6.4 22.1,5.9 C21.7,5.4 21.2,5.1 20.5,5.1 C19.8,5.1 19.3,5.4 18.9,5.9 C18.6,6.3 18.5,6.7 18.5,7 C18.5,7.1 18.5,7.2 18.6,7.2 C18.7,7.2 18.7,7.2 18.8,7.1 C18.9,7 19,6.9 19.1,6.9 C19.3,6.8 19.4,6.7 19.6,6.7 C20,6.7 20.3,6.8 20.5,7 C20.7,7.2 20.8,7.6 20.8,8 C20.8,8.7 20.6,9.3 20.1,9.8 C19.8,10.2 19.2,10.6 18.4,11.1 C16.9,11.8 15.4,12.5 13.9,13.2 C13.5,13.4 13,13.7 12.6,14 C12.3,14.2 11.9,14.5 11.5,14.8 L11.5,7.4 C11.5,7.2 11.6,7 11.9,6.8 C12.3,6.5 12,6 11.6,6.1 C11.2,6.1 10.8,6.1 10.4,6.1 C10.2,6.1 9.9,6.1 9.4,6.1 C8.9,6.1 8.6,6.1 8.5,6.1 C8.4,6.1 8.3,6.1 8.3,6.2 C8.3,6.3 8.3,6.3 8.3,6.4 C8.5,6.6 8.7,6.7 8.9,6.9 C9.2,7.1 9.3,7.3 9.3,7.5 L9.3,21 C9.6,21 9.8,21 10.1,21 C10.5,21 10.9,21 11.3,20.9 L11.3,16.4 C11.8,15.9 12.4,15.4 13.1,15 C13.9,14.5 14.8,14 15.6,13.8 C16,14.3 16.4,14.7 16.6,15.1 C17,15.7 17.2,16.2 17.4,16.8 C17.6,17.4 17.7,18.1 17.8,19 C18,20.3 18.1,21.1 18.1,21.2 C18.3,22 18.5,22.8 18.8,23.6 C19.3,25 20,26.1 20.8,26.9 C21.8,27.9 23,28.5 24.3,28.5 C24.7,28.5 24.9,28.4 25.1,28.2 C25.3,28 25.4,27.8 25.4,27.5 C25.5,27.2 25.4,27 25.3,26.9" id="Shape"></path>
            <path d="M12.5,25.2 C12.5,25.2 12.3,25 11.9,24.7 C11.6,24.5 11.5,24.3 11.5,24.1 L11.5,23 C10.9,23.1 10.2,23.2 9.6,23.2 C9.6,23.2 9.6,23.2 9.6,23.2 L9.6,24.1 C9.6,24.3 9.5,24.5 9.2,24.7 C8.8,25 8.6,25.2 8.6,25.2 C8.6,25.2 8.6,25.3 8.6,25.3 C8.6,25.4 8.7,25.5 8.8,25.5 C8.9,25.5 9.1,25.5 9.3,25.5 C9.9,25.5 10.4,25.4 10.7,25.4 C10.9,25.4 11.2,25.4 11.7,25.4 C12.2,25.4 12.5,25.4 12.5,25.4 C12.7,25.4 12.8,25.3 12.8,25.2 C12.5,25.3 12.5,25.3 12.5,25.2 C12.5,25.2 12.5,25.2 12.5,25.2" id="Shape"></path>
            <path d="M17.4,1.1 C17,0.7 16.4,0.6 15.7,0.6 C14.8,0.6 14,1 13.4,1.7 C12.9,2.3 12.6,2.9 12.5,3.7 C11.5,2.8 10.2,2.3 8.6,2.3 C6.2,2.3 4.2,3.3 2.5,5.2 C1,7.1 0.2,9.3 0.2,11.9 C0.2,14.8 1,17.3 2.7,19.4 C4.5,21.6 6.7,22.7 9.4,22.7 C11.2,22.7 12.8,22.2 14.1,21.3 C15.4,20.3 16.1,19.2 16.3,17.8 C16.3,17.7 16.3,17.7 16.3,17.6 C16.3,17.1 16.2,16.7 16,16.4 C15.7,16 15.4,15.8 14.9,15.8 C14.5,15.8 14.2,16 14,16.3 C13.8,16.6 13.7,16.8 13.7,17.1 C13.7,17.2 13.7,17.3 13.8,17.3 C13.9,17.3 13.9,17.3 13.9,17.2 C14,17.1 14,17 14.1,17 C14.2,16.9 14.4,16.9 14.6,16.9 C14.8,16.9 15,17 15.1,17.2 C15.2,17.4 15.3,17.6 15.3,17.8 C15.3,18.7 14.8,19.6 13.8,20.3 C12.8,21 11.5,21.4 10.1,21.4 C7.7,21.4 5.8,20.3 4.3,18.1 C2.9,16.1 2.3,13.8 2.3,11.2 C2.3,9.1 2.8,7.2 3.9,5.7 C5.1,4 6.6,3.2 8.5,3.2 C9.5,3.2 10.4,3.4 11.2,3.9 C12,4.4 12.5,5 12.7,5.7 C12.8,5.9 12.8,6.1 12.8,6.3 C12.8,6.4 12.8,6.6 12.8,6.7 C12.8,6.9 12.7,7 12.7,7.1 C12.7,7.2 12.7,7.3 12.8,7.3 C12.8,7.3 12.9,7.3 12.9,7.3 C12.9,7.3 13,7.2 13.3,7 C13.3,7 13.5,6.9 13.7,6.7 L14.6,6.2 C14.7,6.2 14.7,6.1 14.7,6.1 C14.7,6.1 14.7,6 14.6,6 C14.3,5.8 14.1,5.7 14.1,5.7 C14,5.6 13.9,5.5 13.8,5.3 C13.5,4.9 13.4,4.5 13.4,4.1 C13.4,3.5 13.6,3 14.1,2.6 C14.6,2.2 15.1,2 15.7,2 C16,2 16.3,2.1 16.6,2.2 C16.9,2.3 17,2.5 17.2,2.8 C17.3,3 17.3,3.1 17.3,3.3 C17.3,3.4 17.3,3.5 17.3,3.6 C17.3,3.7 17.2,3.8 17.2,3.9 C17.2,4 17.2,4.1 17.3,4.1 C17.3,4.1 17.4,4.1 17.4,4.1 C17.7,3.9 17.9,3.8 18,3.6 C18.2,3.3 18.4,3.1 18.4,2.7 C18,1.9 17.8,1.4 17.4,1.1" id="Shape"></path>
        </g>
    </g>
</svg>